<svg xmlns="http://www.w3.org/2000/svg" viewBox="0 0 180.25 180.25"><defs><style>.cls-1{fill:#231f20;}.cls-2{fill:#f79226;}</style></defs><g id="Layer_2" data-name="Layer 2"><g id="Layer_1-2" data-name="Layer 1"><rect class="cls-1" width="180.25" height="180.25"/><path class="cls-2" d="M85.29,66.74q-10-6.13-19.84-6.54a34.48,34.48,0,0,0-14.94,2.44l-.9.35q-15.21,7.07-16,25.16a31,31,0,0,0,6.55,21l.35.51c.52.61,1.09,1.23,1.7,1.85l.22.2a26.92,26.92,0,0,0,6.11,4.69h.08a28.4,28.4,0,0,0,9,3.23l.44.12a42.3,42.3,0,0,0,4.87.5q16.38.68,29.27-11.4l8,11.86.7.92,4.12,6.18c-.31.31-.79.76-1.46,1.32l-1,.84a59,59,0,0,1-28.94,12.5l-1,.16q-3.57.45-7.37.58l-.81,0h-.08c-.64,0-1.06,0-1.26,0l-.89,0-1.55-.07c-1.54-.06-3.09-.16-4.67-.29L54,142.52c-1.38-.19-2.71-.41-4-.66l-.52-.12a47.51,47.51,0,0,1-5.29-1.3l-.29-.11a36.68,36.68,0,0,1-4.24-1.46l-.73-.23a51.27,51.27,0,0,1-8.07-4l-2-1.27a44.16,44.16,0,0,1-4.75-3.64l-.64-.52A49.25,49.25,0,0,1,7.85,103.74l-.32-1.29A56.12,56.12,0,0,1,6.22,87.61q.93-22.44,17.7-36.92Q40.86,36.13,65.15,37.12q23.17,1,38,14.29h-.07l.21.11a16,16,0,0,1,1.86,1.85l-13,18.38a3.62,3.62,0,0,1-.36-.31c.11-.12.21-.19.31-.18s.07,0,.08-.1a.73.73,0,0,0-.14-.3c0-.07-.1-.1-.14-.1s-.13.06-.23.18l-.17.29a47,47,0,0,0-6.12-4.49"/><path class="cls-2" d="M121,142.87H107.74V40.25h66.35L134.28,61.82V83.39h33v21.46h-33v38H121Z"/></g></g></svg>